<?xml version="1.0" encoding="UTF-8" standalone="no"?>
<svg
   xmlns:dc="http://purl.org/dc/elements/1.1/"
   xmlns:cc="http://creativecommons.org/ns#"
   xmlns:rdf="http://www.w3.org/1999/02/22-rdf-syntax-ns#"
   xmlns:svg="http://www.w3.org/2000/svg"
   xmlns="http://www.w3.org/2000/svg"
   xmlns:sodipodi="http://sodipodi.sourceforge.net/DTD/sodipodi-0.dtd"
   xmlns:inkscape="http://www.inkscape.org/namespaces/inkscape"
   version="1.0"
   width="217.000000pt"
   height="185.000000pt"
   viewBox="0 0 217.000000 185.000000"
   preserveAspectRatio="xMidYMid meet"
   id="svg10"
   sodipodi:docname="plane.svg"
   inkscape:version="0.92.1 r15371">
  <defs
     id="defs14" />
  <sodipodi:namedview
     pagecolor="#ffffff"
     bordercolor="#666666"
     borderopacity="1"
     objecttolerance="10"
     gridtolerance="10"
     guidetolerance="10"
     inkscape:pageopacity="0"
     inkscape:pageshadow="2"
     inkscape:window-width="1920"
     inkscape:window-height="1030"
     id="namedview12"
     showgrid="false"
     inkscape:zoom="0.95675676"
     inkscape:cx="144.66667"
     inkscape:cy="123.33333"
     inkscape:window-x="0"
     inkscape:window-y="0"
     inkscape:window-maximized="1"
     inkscape:current-layer="svg10" />
  <metadata
     id="metadata2">
Created by potrace 1.16, written by Peter Selinger 2001-2019
<rdf:RDF>
  <cc:Work
     rdf:about="">
    <dc:format>image/svg+xml</dc:format>
    <dc:type
       rdf:resource="http://purl.org/dc/dcmitype/StillImage" />
  </cc:Work>
</rdf:RDF>
</metadata>
  <g
     transform="matrix(0,0.1,0.1,0,13.538031,-12.536321)"
     id="g8"
     style="fill:#000000;stroke:none">
    <path
       d="m 971,1724 c 50,-54 184,-307 213,-401 4,-13 14,-23 23,-23 28,0 -5,-27 -131,-107 C 954,1116 699,937 602,861 507,786 494,745 510,566 c 13,-156 41,-356 50,-356 3,0 67,62 140,138 446,458 494,504 508,485 12,-16 13,-16 7,7 -5,20 2,33 34,64 45,44 64,40 77,-17 3,-18 20,-71 35,-119 37,-110 37,-118 0,-118 h -29 l 13,-38 c 13,-37 44,-62 77,-62 11,0 20,-11 24,-28 3,-15 7,-32 9,-39 2,-7 0,-15 -4,-18 -5,-2 -12,7 -15,22 -9,33 -19,21 -35,-42 -6,-27 -32,-86 -57,-130 l -46,-80 14,-73 c 7,-40 18,-74 23,-75 5,-1 41,42 80,95 55,78 71,94 78,82 6,-11 5,-19 -3,-24 -8,-5 0,-11 21,-19 52,-18 58,-15 49,25 -8,34 -8,35 11,18 26,-24 24,-9 -8,53 l -28,52 19,35 c 25,47 12,107 -24,116 -28,7 -23,-16 -65,300 -14,107 -28,215 -32,239 -4,32 -3,42 5,37 7,-4 12,-2 12,4 0,18 38,53 49,45 6,-3 11,2 11,12 0,10 58,76 130,148 72,71 130,136 130,143 0,21 -71,152 -83,152 -5,0 -25,-10 -44,-21 -19,-12 -36,-20 -37,-18 -2,2 -21,34 -41,71 -20,38 -40,70 -44,73 -11,6 -134,-54 -227,-110 l -75,-46 -73,68 c -41,37 -102,83 -137,102 l -64,34 z"
       id="path4"
       inkscape:connector-curvature="0" />
    <path
       d="M 945,1403 C 764,1300 454,1102 409,1062 c -67,-59 -73,-86 -66,-262 6,-126 42,-438 52,-448 2,-3 26,15 54,38 46,39 49,45 43,74 -3,17 -6,90 -7,161 0,178 10,195 185,317 24,17 23,18 -75,17 -127,0 -130,0 -122,7 3,4 59,7 124,8 l 118,1 197,130 c 162,107 197,134 194,150 -6,31 -70,195 -76,194 -3,0 -41,-21 -85,-46 z"
       id="path6"
       inkscape:connector-curvature="0" />
  </g>
</svg>
